<svg width="29" height="29" viewBox="0 0 29 29" fill="none" xmlns="http://www.w3.org/2000/svg">
<path d="M14.1937 26.9336C7.27537 26.9336 1.65204 21.3103 1.65204 14.3919C1.65204 7.47361 7.27537 1.85028 14.1937 1.85028C21.112 1.85028 26.7354 7.47361 26.7354 14.3919C26.7354 21.3103 21.112 26.9336 14.1937 26.9336ZM14.1937 3.60028C8.24371 3.60028 3.40204 8.44195 3.40204 14.3919C3.40204 20.3419 8.24371 25.1836 14.1937 25.1836C20.1437 25.1836 24.9854 20.3419 24.9854 14.3919C24.9854 8.44195 20.1437 3.60028 14.1937 3.60028Z" fill="#525252"/>
<path d="M10.892 18.5686C10.6704 18.5686 10.4487 18.4869 10.2737 18.3119C9.93538 17.9736 9.93538 17.4136 10.2737 17.0753L16.877 10.472C17.2154 10.1336 17.7754 10.1336 18.1137 10.472C18.452 10.8103 18.452 11.3703 18.1137 11.7086L11.5104 18.3119C11.347 18.4869 11.1137 18.5686 10.892 18.5686Z" fill="#525252"/>
<path d="M17.4954 18.5686C17.2737 18.5686 17.052 18.4869 16.877 18.3119L10.2737 11.7086C9.93538 11.3703 9.93538 10.8103 10.2737 10.472C10.612 10.1336 11.172 10.1336 11.5104 10.472L18.1137 17.0753C18.452 17.4136 18.452 17.9736 18.1137 18.3119C17.9387 18.4869 17.717 18.5686 17.4954 18.5686Z" fill="#525252"/>
</svg>
