<?xml version="1.0" encoding="UTF-8"?>
<svg xmlns="http://www.w3.org/2000/svg" xmlns:xlink="http://www.w3.org/1999/xlink" width="36px" height="36px" viewBox="0 0 36 36" version="1.1">
<g id="surface1">
<path style=" stroke:none;fill-rule:nonzero;fill:rgb(0%,0%,0%);fill-opacity:1;" d="M 28.96875 2.601562 C 29.25 2.933594 29.414062 3.351562 29.566406 3.753906 C 29.597656 3.839844 29.597656 3.839844 29.632812 3.925781 C 29.679688 4.046875 29.726562 4.167969 29.777344 4.292969 C 29.851562 4.492188 29.929688 4.691406 30.007812 4.890625 C 30.089844 5.101562 30.175781 5.316406 30.257812 5.527344 C 30.542969 6.253906 30.828125 6.980469 31.117188 7.703125 C 31.238281 8.003906 31.359375 8.308594 31.480469 8.609375 C 31.539062 8.761719 31.601562 8.917969 31.664062 9.074219 C 31.890625 9.640625 32.117188 10.210938 32.34375 10.777344 C 32.957031 12.324219 33.574219 13.867188 34.195312 15.40625 C 34.367188 15.835938 34.539062 16.269531 34.710938 16.699219 C 34.875 17.101562 35.039062 17.503906 35.199219 17.90625 C 35.300781 18.152344 35.398438 18.398438 35.5 18.648438 C 35.542969 18.761719 35.589844 18.875 35.636719 18.988281 C 36.085938 20.085938 36.085938 20.085938 36 20.601562 C 35.828125 20.902344 35.640625 21.015625 35.328125 21.140625 C 35.207031 21.1875 35.207031 21.1875 35.085938 21.238281 C 35 21.269531 34.914062 21.304688 34.828125 21.339844 C 34.738281 21.375 34.648438 21.410156 34.558594 21.449219 C 34.367188 21.523438 34.175781 21.601562 33.984375 21.675781 C 33.722656 21.78125 33.460938 21.886719 33.199219 21.988281 C 32.984375 22.074219 32.773438 22.160156 32.558594 22.246094 C 32.457031 22.285156 32.355469 22.328125 32.25 22.367188 C 32.105469 22.425781 31.960938 22.484375 31.816406 22.539062 C 31.691406 22.589844 31.691406 22.589844 31.5625 22.640625 C 31.359375 22.710938 31.359375 22.710938 31.148438 22.710938 C 31.148438 22.761719 31.148438 22.816406 31.148438 22.871094 C 31.15625 24.148438 31.160156 25.425781 31.164062 26.703125 C 31.164062 27.324219 31.167969 27.941406 31.167969 28.558594 C 31.171875 29.097656 31.175781 29.636719 31.175781 30.175781 C 31.175781 30.460938 31.175781 30.746094 31.179688 31.03125 C 31.179688 31.300781 31.179688 31.566406 31.179688 31.835938 C 31.179688 31.933594 31.179688 32.035156 31.183594 32.132812 C 31.191406 32.96875 31.191406 32.96875 31.03125 33.242188 C 30.714844 33.546875 30.355469 33.558594 29.929688 33.558594 C 29.851562 33.558594 29.851562 33.558594 29.777344 33.558594 C 29.605469 33.558594 29.4375 33.558594 29.265625 33.558594 C 29.144531 33.558594 29.019531 33.558594 28.898438 33.558594 C 28.558594 33.558594 28.222656 33.558594 27.882812 33.558594 C 27.519531 33.558594 27.152344 33.558594 26.789062 33.558594 C 26.074219 33.558594 25.363281 33.558594 24.648438 33.558594 C 24.066406 33.558594 23.488281 33.558594 22.90625 33.5625 C 22.824219 33.5625 22.742188 33.5625 22.65625 33.5625 C 22.488281 33.5625 22.320312 33.5625 22.152344 33.5625 C 20.582031 33.5625 19.007812 33.5625 17.433594 33.5625 C 15.996094 33.5625 14.554688 33.5625 13.117188 33.5625 C 11.636719 33.5625 10.160156 33.566406 8.683594 33.566406 C 7.851562 33.566406 7.023438 33.566406 6.191406 33.566406 C 5.488281 33.566406 4.78125 33.566406 4.074219 33.566406 C 3.714844 33.566406 3.351562 33.566406 2.992188 33.566406 C 2.664062 33.566406 2.332031 33.566406 2.003906 33.566406 C 1.882812 33.566406 1.765625 33.566406 1.644531 33.566406 C 1.480469 33.566406 1.320312 33.566406 1.15625 33.566406 C 1.023438 33.566406 1.023438 33.566406 0.882812 33.566406 C 0.585938 33.535156 0.40625 33.46875 0.140625 33.328125 C -0.0078125 33.105469 -0.0195312 33.050781 -0.0195312 32.792969 C -0.0195312 32.726562 -0.0195312 32.660156 -0.0195312 32.59375 C -0.0195312 32.519531 -0.0195312 32.445312 -0.0195312 32.371094 C -0.0195312 32.292969 -0.0195312 32.214844 -0.0195312 32.136719 C -0.0195312 31.875 -0.0234375 31.613281 -0.0234375 31.351562 C -0.0234375 31.164062 -0.0234375 30.976562 -0.0234375 30.789062 C -0.0234375 30.277344 -0.0273438 29.769531 -0.0273438 29.257812 C -0.0273438 28.941406 -0.0273438 28.625 -0.0273438 28.304688 C -0.0273438 27.425781 -0.03125 26.546875 -0.03125 25.664062 C -0.03125 25.609375 -0.03125 25.550781 -0.03125 25.492188 C -0.03125 25.378906 -0.03125 25.265625 -0.03125 25.152344 C -0.03125 25.09375 -0.03125 25.039062 -0.03125 24.980469 C -0.03125 24.921875 -0.03125 24.867188 -0.03125 24.808594 C -0.03125 23.886719 -0.03125 22.96875 -0.0351562 22.046875 C -0.0390625 21.101562 -0.0390625 20.15625 -0.0390625 19.214844 C -0.0390625 18.683594 -0.0390625 18.152344 -0.0429688 17.621094 C -0.0429688 17.171875 -0.0429688 16.71875 -0.0429688 16.265625 C -0.0429688 16.035156 -0.0429688 15.804688 -0.0429688 15.574219 C -0.046875 15.328125 -0.0429688 15.078125 -0.0429688 14.828125 C -0.0429688 14.71875 -0.0429688 14.71875 -0.046875 14.605469 C -0.0390625 14.113281 -0.0390625 14.113281 0.171875 13.84375 C 0.230469 13.800781 0.289062 13.757812 0.351562 13.710938 C 0.390625 13.679688 0.433594 13.644531 0.476562 13.613281 C 0.875 13.359375 1.300781 13.195312 1.746094 13.03125 C 1.988281 12.9375 2.230469 12.84375 2.476562 12.753906 C 2.550781 12.722656 2.550781 12.722656 2.628906 12.695312 C 3.183594 12.484375 3.734375 12.261719 4.28125 12.042969 C 4.386719 12 4.492188 11.957031 4.59375 11.917969 C 4.8125 11.828125 5.03125 11.742188 5.246094 11.65625 C 5.863281 11.410156 6.476562 11.164062 7.089844 10.917969 C 7.15625 10.890625 7.222656 10.863281 7.289062 10.835938 C 8.855469 10.210938 10.421875 9.585938 11.988281 8.960938 C 12.21875 8.871094 12.445312 8.78125 12.671875 8.691406 C 13.449219 8.382812 14.226562 8.074219 15 7.765625 C 16.480469 7.175781 17.957031 6.589844 19.4375 6 C 19.761719 5.871094 20.085938 5.742188 20.40625 5.613281 C 21.953125 5 23.496094 4.382812 25.039062 3.765625 C 25.148438 3.71875 25.261719 3.675781 25.371094 3.632812 C 25.824219 3.449219 26.273438 3.269531 26.726562 3.089844 C 26.9375 3.003906 27.152344 2.917969 27.363281 2.832031 C 27.4375 2.800781 27.511719 2.773438 27.589844 2.742188 C 27.691406 2.699219 27.691406 2.699219 27.792969 2.660156 C 27.851562 2.636719 27.910156 2.613281 27.96875 2.589844 C 28.324219 2.457031 28.617188 2.425781 28.96875 2.601562 Z M 27.695312 4.324219 C 27.636719 4.347656 27.574219 4.371094 27.511719 4.398438 C 27.445312 4.425781 27.375 4.449219 27.308594 4.476562 C 27.234375 4.507812 27.164062 4.535156 27.089844 4.5625 C 26.847656 4.660156 26.601562 4.753906 26.359375 4.851562 C 26.226562 4.902344 26.09375 4.957031 25.964844 5.007812 C 24.285156 5.667969 22.609375 6.339844 20.933594 7.011719 C 18.929688 7.8125 16.921875 8.613281 14.910156 9.414062 C 12.335938 10.4375 9.761719 11.464844 7.1875 12.492188 C 7.121094 12.519531 7.050781 12.550781 6.980469 12.578125 C 6.152344 12.910156 5.328125 13.238281 4.5 13.570312 C 4.5 13.59375 4.5 13.617188 4.5 13.640625 C 5.015625 13.648438 5.53125 13.65625 6.046875 13.660156 C 6.285156 13.660156 6.523438 13.664062 6.761719 13.667969 C 7.039062 13.671875 7.316406 13.671875 7.589844 13.675781 C 7.675781 13.675781 7.761719 13.679688 7.847656 13.679688 C 8.34375 13.679688 8.5625 13.644531 8.929688 13.289062 C 9.148438 13.175781 9.378906 13.09375 9.609375 13.003906 C 9.679688 12.976562 9.75 12.953125 9.820312 12.921875 C 9.972656 12.863281 10.128906 12.804688 10.28125 12.746094 C 10.675781 12.597656 11.066406 12.445312 11.457031 12.292969 C 11.554688 12.253906 11.652344 12.214844 11.746094 12.179688 C 13.109375 11.652344 14.460938 11.105469 15.816406 10.5625 C 16.429688 10.316406 17.042969 10.074219 17.65625 9.828125 C 17.722656 9.800781 17.789062 9.773438 17.855469 9.746094 C 19.0625 9.265625 20.265625 8.785156 21.472656 8.304688 C 21.601562 8.253906 21.730469 8.203125 21.859375 8.152344 C 22.09375 8.058594 22.328125 7.964844 22.5625 7.871094 C 22.628906 7.84375 22.695312 7.820312 22.765625 7.792969 C 23.746094 7.402344 23.746094 7.402344 24.1875 7.523438 C 24.351562 7.664062 24.351562 7.664062 24.433594 7.757812 C 25.257812 8.667969 26.28125 9.230469 27.523438 9.300781 C 27.691406 9.308594 27.859375 9.316406 28.027344 9.324219 C 28.109375 9.328125 28.109375 9.328125 28.195312 9.332031 C 28.242188 9.332031 28.292969 9.335938 28.34375 9.339844 C 28.476562 9.351562 28.476562 9.351562 28.6875 9.421875 C 28.761719 9.613281 28.761719 9.613281 28.828125 9.84375 C 28.875 9.960938 28.925781 10.078125 28.976562 10.195312 C 29.117188 10.535156 29.253906 10.875 29.382812 11.214844 C 29.484375 11.476562 29.585938 11.738281 29.691406 12 C 29.742188 12.136719 29.792969 12.273438 29.847656 12.410156 C 29.921875 12.609375 30 12.804688 30.078125 13.003906 C 30.101562 13.066406 30.121094 13.125 30.144531 13.1875 C 30.269531 13.496094 30.316406 13.613281 30.625 13.765625 C 30.746094 13.808594 30.746094 13.808594 30.867188 13.851562 C 31.132812 14.164062 31.109375 14.492188 31.109375 14.882812 C 31.109375 14.949219 31.109375 15.019531 31.109375 15.089844 C 31.113281 15.3125 31.113281 15.535156 31.113281 15.761719 C 31.117188 15.914062 31.117188 16.070312 31.117188 16.226562 C 31.121094 16.636719 31.125 17.046875 31.125 17.453125 C 31.128906 17.871094 31.128906 18.289062 31.132812 18.707031 C 31.140625 19.527344 31.144531 20.34375 31.148438 21.164062 C 31.4375 21.054688 31.726562 20.941406 32.011719 20.832031 C 32.132812 20.785156 32.132812 20.785156 32.257812 20.738281 C 32.949219 20.472656 33.632812 20.191406 34.3125 19.898438 C 34.179688 19.484375 34.03125 19.078125 33.871094 18.671875 C 33.847656 18.617188 33.828125 18.5625 33.804688 18.503906 C 33.730469 18.316406 33.65625 18.132812 33.582031 17.945312 C 33.53125 17.8125 33.476562 17.679688 33.425781 17.542969 C 33.25 17.109375 33.078125 16.675781 32.90625 16.242188 C 32.847656 16.09375 32.789062 15.949219 32.730469 15.800781 C 32.328125 14.792969 31.929688 13.785156 31.527344 12.777344 C 31.226562 12.027344 30.929688 11.277344 30.628906 10.527344 C 30.597656 10.445312 30.566406 10.363281 30.53125 10.28125 C 29.957031 8.839844 29.386719 7.398438 28.816406 5.960938 C 28.796875 5.914062 28.777344 5.867188 28.757812 5.816406 C 28.546875 5.285156 28.335938 4.75 28.125 4.21875 C 27.957031 4.21875 27.851562 4.261719 27.695312 4.324219 Z M 23.109375 9.179688 C 23.046875 9.203125 22.988281 9.226562 22.925781 9.25 C 22.824219 9.292969 22.824219 9.292969 22.722656 9.332031 C 22.652344 9.359375 22.582031 9.386719 22.511719 9.417969 C 22.277344 9.511719 22.046875 9.601562 21.8125 9.695312 C 21.648438 9.761719 21.484375 9.828125 21.320312 9.894531 C 20.929688 10.050781 20.539062 10.203125 20.152344 10.359375 C 19.675781 10.550781 19.199219 10.742188 18.722656 10.933594 C 17.828125 11.289062 16.929688 11.648438 16.035156 12.007812 C 15.539062 12.207031 15.042969 12.40625 14.546875 12.601562 C 14.398438 12.664062 14.25 12.722656 14.101562 12.78125 C 13.433594 13.046875 12.765625 13.3125 12.09375 13.570312 C 12.09375 13.59375 12.09375 13.617188 12.09375 13.640625 C 17.59375 13.640625 23.09375 13.640625 28.757812 13.640625 C 28.628906 13.214844 28.507812 12.820312 28.34375 12.410156 C 28.324219 12.363281 28.308594 12.320312 28.289062 12.273438 C 28.25 12.175781 28.210938 12.082031 28.175781 11.988281 C 28.117188 11.839844 28.058594 11.695312 28 11.550781 C 27.863281 11.125 27.863281 11.125 27.632812 10.757812 C 27.488281 10.734375 27.339844 10.710938 27.195312 10.691406 C 25.851562 10.503906 24.671875 10.046875 23.695312 9.070312 C 23.441406 9.070312 23.335938 9.089844 23.109375 9.179688 Z M 1.476562 15.117188 C 1.476562 20.710938 1.476562 26.300781 1.476562 32.0625 C 10.78125 32.0625 20.085938 32.0625 29.671875 32.0625 C 29.671875 26.46875 29.671875 20.878906 29.671875 15.117188 C 20.367188 15.117188 11.0625 15.117188 1.476562 15.117188 Z M 1.476562 15.117188 "/>
<path style=" stroke:none;fill-rule:nonzero;fill:rgb(0%,0%,0%);fill-opacity:1;" d="M 7.734375 16.445312 C 7.804688 16.445312 7.875 16.445312 7.945312 16.441406 C 8.179688 16.441406 8.414062 16.441406 8.648438 16.441406 C 8.8125 16.441406 8.980469 16.441406 9.148438 16.441406 C 9.554688 16.441406 9.964844 16.441406 10.371094 16.441406 C 10.703125 16.441406 11.035156 16.441406 11.363281 16.441406 C 12.304688 16.441406 13.246094 16.441406 14.183594 16.441406 C 14.234375 16.441406 14.285156 16.441406 14.335938 16.441406 C 14.386719 16.441406 14.4375 16.441406 14.492188 16.441406 C 15.3125 16.441406 16.132812 16.441406 16.957031 16.4375 C 17.800781 16.4375 18.644531 16.4375 19.488281 16.4375 C 19.960938 16.4375 20.433594 16.4375 20.910156 16.4375 C 21.355469 16.433594 21.800781 16.433594 22.246094 16.4375 C 22.40625 16.4375 22.570312 16.4375 22.734375 16.433594 C 22.957031 16.433594 23.179688 16.433594 23.402344 16.4375 C 23.46875 16.433594 23.535156 16.433594 23.601562 16.433594 C 24.519531 16.441406 24.519531 16.441406 24.847656 16.753906 C 24.960938 16.945312 25.039062 17.125 25.113281 17.332031 C 25.613281 18.570312 26.457031 19.207031 27.632812 19.757812 C 28.132812 19.996094 28.132812 19.996094 28.265625 20.25 C 28.328125 20.605469 28.347656 20.953125 28.347656 21.3125 C 28.347656 21.394531 28.347656 21.394531 28.347656 21.476562 C 28.347656 21.65625 28.347656 21.835938 28.347656 22.015625 C 28.347656 22.140625 28.347656 22.265625 28.347656 22.390625 C 28.347656 22.652344 28.347656 22.914062 28.347656 23.179688 C 28.347656 23.511719 28.351562 23.847656 28.351562 24.183594 C 28.351562 24.441406 28.351562 24.703125 28.351562 24.960938 C 28.351562 25.082031 28.351562 25.207031 28.351562 25.332031 C 28.359375 26.894531 28.359375 26.894531 28.035156 27.242188 C 27.84375 27.351562 27.65625 27.4375 27.449219 27.515625 C 26.089844 28.0625 25.5 28.976562 24.925781 30.253906 C 24.8125 30.457031 24.734375 30.535156 24.539062 30.65625 C 24.390625 30.683594 24.390625 30.683594 24.222656 30.683594 C 24.160156 30.683594 24.097656 30.683594 24.035156 30.683594 C 23.964844 30.683594 23.894531 30.683594 23.824219 30.683594 C 23.75 30.683594 23.675781 30.683594 23.601562 30.683594 C 23.355469 30.6875 23.109375 30.6875 22.859375 30.6875 C 22.683594 30.6875 22.507812 30.6875 22.328125 30.6875 C 21.898438 30.6875 21.46875 30.6875 21.039062 30.6875 C 20.6875 30.6875 20.335938 30.6875 19.988281 30.691406 C 19.886719 30.691406 19.785156 30.691406 19.683594 30.691406 C 19.609375 30.691406 19.609375 30.691406 19.53125 30.691406 C 18.582031 30.691406 17.632812 30.691406 16.683594 30.691406 C 15.816406 30.691406 14.945312 30.691406 14.078125 30.695312 C 13.1875 30.695312 12.296875 30.699219 11.402344 30.699219 C 10.902344 30.699219 10.402344 30.699219 9.902344 30.699219 C 9.429688 30.703125 8.960938 30.703125 8.488281 30.699219 C 8.316406 30.699219 8.144531 30.699219 7.96875 30.699219 C 7.734375 30.703125 7.5 30.703125 7.261719 30.699219 C 7.195312 30.699219 7.125 30.703125 7.054688 30.703125 C 6.726562 30.699219 6.585938 30.695312 6.324219 30.484375 C 6.210938 30.339844 6.128906 30.21875 6.066406 30.050781 C 6.046875 30.003906 6.027344 29.957031 6.011719 29.910156 C 5.992188 29.863281 5.972656 29.8125 5.953125 29.765625 C 5.75 29.265625 5.507812 28.867188 5.132812 28.476562 C 5.085938 28.425781 5.039062 28.378906 4.992188 28.328125 C 4.558594 27.90625 4.054688 27.667969 3.515625 27.421875 C 2.96875 27.167969 2.96875 27.167969 2.8125 26.929688 C 2.796875 26.71875 2.792969 26.511719 2.792969 26.296875 C 2.792969 26.234375 2.792969 26.167969 2.789062 26.101562 C 2.789062 25.886719 2.789062 25.675781 2.789062 25.460938 C 2.789062 25.3125 2.789062 25.164062 2.789062 25.015625 C 2.785156 24.703125 2.785156 24.390625 2.785156 24.078125 C 2.785156 23.679688 2.785156 23.28125 2.78125 22.878906 C 2.78125 22.574219 2.78125 22.265625 2.78125 21.960938 C 2.78125 21.8125 2.78125 21.664062 2.777344 21.519531 C 2.777344 21.3125 2.777344 21.105469 2.777344 20.898438 C 2.777344 20.839844 2.777344 20.777344 2.777344 20.714844 C 2.777344 20.433594 2.789062 20.285156 2.941406 20.042969 C 3.144531 19.851562 3.371094 19.761719 3.625 19.664062 C 4.890625 19.144531 5.554688 18.320312 6.089844 17.085938 C 6.117188 17.023438 6.140625 16.960938 6.167969 16.898438 C 6.273438 16.707031 6.347656 16.628906 6.539062 16.523438 C 6.9375 16.449219 7.328125 16.441406 7.734375 16.445312 Z M 7.382812 17.929688 C 7.195312 18.277344 7.011719 18.625 6.820312 18.984375 C 6.183594 19.871094 5.34375 20.671875 4.289062 21.023438 C 4.289062 22.695312 4.289062 24.363281 4.289062 26.085938 C 4.777344 26.363281 4.777344 26.363281 5.273438 26.648438 C 5.496094 26.808594 5.699219 26.960938 5.90625 27.140625 C 5.957031 27.1875 6.011719 27.234375 6.066406 27.28125 C 6.507812 27.695312 6.804688 28.164062 7.101562 28.6875 C 7.242188 28.929688 7.242188 28.929688 7.382812 29.179688 C 12.789062 29.179688 18.195312 29.179688 23.765625 29.179688 C 23.929688 28.855469 24.089844 28.53125 24.257812 28.195312 C 24.441406 27.945312 24.617188 27.71875 24.820312 27.492188 C 24.875 27.429688 24.875 27.429688 24.929688 27.363281 C 25.433594 26.808594 26.148438 26.453125 26.789062 26.085938 C 26.789062 24.414062 26.789062 22.746094 26.789062 21.023438 C 26.511719 20.882812 26.230469 20.746094 25.945312 20.601562 C 24.898438 19.914062 24.25 19.035156 23.695312 17.929688 C 18.3125 17.929688 12.929688 17.929688 7.382812 17.929688 Z M 7.382812 17.929688 "/>
<path style=" stroke:none;fill-rule:nonzero;fill:rgb(0%,0%,0%);fill-opacity:1;" d="M 18.027344 20.035156 C 19.03125 20.832031 19.652344 21.785156 19.828125 23.0625 C 19.929688 24.207031 19.675781 25.339844 18.945312 26.246094 C 18.347656 26.945312 17.671875 27.398438 16.804688 27.703125 C 16.753906 27.71875 16.707031 27.738281 16.65625 27.757812 C 15.582031 28.058594 14.386719 27.84375 13.421875 27.332031 C 12.394531 26.714844 11.738281 25.832031 11.378906 24.695312 C 11.113281 23.640625 11.230469 22.484375 11.742188 21.515625 C 12.398438 20.472656 13.296875 19.707031 14.5 19.378906 C 15.734375 19.175781 16.980469 19.304688 18.027344 20.035156 Z M 13.300781 21.882812 C 12.828125 22.53125 12.65625 23.292969 12.769531 24.082031 C 12.9375 24.875 13.34375 25.476562 14.007812 25.929688 C 14.6875 26.335938 15.359375 26.472656 16.144531 26.335938 C 16.882812 26.140625 17.5 25.730469 17.929688 25.101562 C 18.339844 24.296875 18.476562 23.566406 18.214844 22.695312 C 17.902344 21.859375 17.335938 21.324219 16.542969 20.945312 C 15.351562 20.46875 14.09375 20.945312 13.300781 21.882812 Z M 13.300781 21.882812 "/>
<path style=" stroke:none;fill-rule:nonzero;fill:rgb(0%,0%,0%);fill-opacity:1;" d="M 23.933594 22.613281 C 24.183594 22.839844 24.371094 23.023438 24.425781 23.371094 C 24.445312 23.796875 24.378906 24.0625 24.117188 24.398438 C 23.878906 24.601562 23.652344 24.695312 23.339844 24.710938 C 22.945312 24.667969 22.703125 24.554688 22.441406 24.257812 C 22.214844 23.945312 22.1875 23.722656 22.21875 23.34375 C 22.3125 23.035156 22.449219 22.789062 22.71875 22.605469 C 23.121094 22.414062 23.539062 22.425781 23.933594 22.613281 Z M 23.074219 23.359375 C 22.976562 23.480469 22.976562 23.480469 23.003906 23.628906 C 23.058594 23.777344 23.058594 23.777344 23.203125 23.90625 C 23.386719 23.882812 23.386719 23.882812 23.554688 23.835938 C 23.601562 23.632812 23.601562 23.632812 23.625 23.414062 C 23.578125 23.367188 23.53125 23.320312 23.484375 23.273438 C 23.214844 23.246094 23.214844 23.246094 23.074219 23.359375 Z M 23.074219 23.359375 "/>
<path style=" stroke:none;fill-rule:nonzero;fill:rgb(0%,0%,0%);fill-opacity:1;" d="M 8.320312 22.582031 C 8.59375 22.769531 8.753906 22.957031 8.859375 23.273438 C 8.902344 23.648438 8.886719 23.972656 8.675781 24.292969 C 8.425781 24.5625 8.125 24.664062 7.769531 24.714844 C 7.414062 24.664062 7.113281 24.5625 6.863281 24.292969 C 6.652344 23.972656 6.617188 23.648438 6.679688 23.273438 C 6.777344 22.980469 6.929688 22.78125 7.183594 22.609375 C 7.5625 22.421875 7.929688 22.445312 8.320312 22.582031 Z M 7.535156 23.359375 C 7.4375 23.480469 7.4375 23.480469 7.464844 23.628906 C 7.519531 23.777344 7.519531 23.777344 7.664062 23.90625 C 7.847656 23.882812 7.847656 23.882812 8.015625 23.835938 C 8.0625 23.632812 8.0625 23.632812 8.085938 23.414062 C 8.039062 23.367188 7.992188 23.320312 7.945312 23.273438 C 7.675781 23.246094 7.675781 23.246094 7.535156 23.359375 Z M 7.535156 23.359375 "/>
</g>
</svg>
