<svg width="36" height="36" viewBox="0 0 36 36" fill="none" xmlns="http://www.w3.org/2000/svg">
<path d="M26.235 14.4L8.4 25.155C7.35 25.785 6 25.035 6 23.805V11.805C6 6.57 11.655 3.3 16.2 5.91L23.085 9.87L26.22 11.67C27.255 12.285 27.27 13.785 26.235 14.4Z" fill="black"/>
<path d="M27.135 23.19L21.06 26.7L15 30.195C12.825 31.44 10.365 31.185 8.57996 29.925C7.70996 29.325 7.81496 27.99 8.72996 27.45L27.795 16.02C28.695 15.48 29.88 15.99 30.045 17.025C30.42 19.35 29.46 21.855 27.135 23.19Z" fill="black"/>
</svg>
