<svg width="28" height="28" viewBox="0 0 28 28" fill="none" xmlns="http://www.w3.org/2000/svg">
<path d="M16.975 26.1566C16.59 26.1566 16.2284 25.9 16.1234 25.5033C15.995 25.0366 16.275 24.5583 16.7534 24.43C21.49 23.1816 24.7917 18.8883 24.7917 13.9883C24.7917 8.03831 19.95 3.19665 14 3.19665C8.94837 3.19665 5.63504 6.14831 4.08337 7.93331H7.51337C7.99171 7.93331 8.38837 8.32998 8.38837 8.80831C8.38837 9.28665 8.00337 9.69498 7.51337 9.69498H2.34504C2.28671 9.69498 2.18171 9.68331 2.10004 9.65998C1.99504 9.62498 1.90171 9.57831 1.82004 9.51998C1.71504 9.44998 1.63337 9.35665 1.57504 9.25165C1.51671 9.14665 1.47004 9.01831 1.45837 8.88998C1.45837 8.85498 1.45837 8.83165 1.45837 8.79665V3.49998C1.45837 3.02165 1.85504 2.62498 2.33337 2.62498C2.81171 2.62498 3.20837 3.02165 3.20837 3.49998V6.28831C5.11004 4.24665 8.69171 1.45831 14 1.45831C20.9184 1.45831 26.5417 7.08165 26.5417 14C26.5417 19.6933 22.7034 24.6866 17.1967 26.1333C17.1267 26.145 17.045 26.1566 16.975 26.1566Z" fill="black"/>
<path d="M13.1717 26.5183C13.1484 26.5183 13.125 26.5067 13.1134 26.5067C11.8534 26.425 10.6167 26.145 9.45004 25.69C9.11171 25.5617 8.87837 25.2233 8.89004 24.8617C8.89004 24.7567 8.91337 24.6517 8.94837 24.5583C9.12337 24.115 9.64837 23.8933 10.08 24.0567C11.095 24.4533 12.1567 24.6867 13.23 24.7683C13.685 24.7917 14.0467 25.1883 14.0467 25.655L14.035 25.7017C14.0117 26.1567 13.6267 26.5183 13.1717 26.5183ZM6.74337 24.01C6.54504 24.01 6.35837 23.94 6.19504 23.8233C5.21504 23.03 4.35171 22.1083 3.65171 21.0817C3.54671 20.93 3.48837 20.7667 3.48837 20.5917C3.48837 20.3 3.62837 20.0317 3.87337 19.8683C4.25837 19.6 4.81837 19.705 5.08671 20.0783C5.08671 20.09 5.08671 20.09 5.08671 20.09C5.09837 20.1017 5.11004 20.125 5.12171 20.1367C5.72837 21.0117 6.46337 21.7933 7.29171 22.4467C7.49004 22.61 7.61837 22.855 7.61837 23.1233C7.61837 23.3217 7.56004 23.52 7.43171 23.6833C7.25671 23.8933 7.01171 24.01 6.74337 24.01ZM2.84671 18.3167C2.46171 18.3167 2.12337 18.0717 2.01837 17.71C1.64504 16.5083 1.45837 15.26 1.45837 14V13.9883C1.47004 13.51 1.85504 13.125 2.33337 13.125C2.81171 13.125 3.20837 13.5217 3.20837 14C3.20837 15.0967 3.37171 16.17 3.68671 17.185C3.71004 17.2783 3.72171 17.36 3.72171 17.4533C3.72171 17.8267 3.47671 18.165 3.10337 18.2817C3.02171 18.305 2.94004 18.3167 2.84671 18.3167Z" fill="black"/>
</svg>
